<svg version="1.1" id="Layer_1" xmlns="http://www.w3.org/2000/svg" xmlns:xlink="http://www.w3.org/1999/xlink" x="0px" y="0px"
	 width="100%" viewBox="0 0 193 182" enable-background="new 0 0 193 182" xml:space="preserve">
<path fill="#FEFEFE" opacity="1.000000" stroke="none" 
	d="
M115.000000,183.000000 
	C76.691902,183.000000 38.883804,183.000000 1.037854,183.000000 
	C1.037854,122.399055 1.037854,61.798084 1.037854,1.098554 
	C65.224579,1.098554 129.449371,1.098554 193.837067,1.098554 
	C193.837067,61.666313 193.837067,122.333115 193.837067,183.000000 
	C167.798386,183.000000 141.649200,183.000000 115.000000,183.000000 
M81.229881,159.435532 
	C81.189171,159.030243 81.148453,158.624969 81.713051,157.675766 
	C82.665894,158.411621 83.585075,159.196823 84.577827,159.874176 
	C87.677696,161.989182 91.254898,162.438477 93.392776,159.309570 
	C94.614693,157.521225 94.716461,152.796799 93.563454,152.026093 
	C91.421501,150.594360 87.981216,150.816208 85.103668,150.926819 
	C84.064026,150.966782 83.088051,152.663254 82.850655,152.885422 
	C80.513329,151.640884 78.938675,150.299484 77.182892,149.991867 
	C74.862450,149.585281 72.400116,149.988525 69.193634,149.991196 
	C68.130318,150.078018 67.067009,150.164825 65.358841,149.974976 
	C64.899612,150.033279 64.440384,150.091599 63.483406,150.108047 
	C63.130577,150.309723 63.032448,150.598083 63.009048,151.724747 
	C63.057480,152.492386 63.105911,153.260010 63.009384,154.668808 
	C63.057167,155.101730 63.104946,155.534637 63.001091,156.747635 
	C63.053375,159.106201 62.260269,162.253601 67.002510,160.585251 
	C67.002510,158.976105 66.790451,157.293915 67.139572,155.737610 
	C67.236633,155.304901 68.996147,155.245148 69.951790,155.732071 
	C69.946587,157.165131 69.941383,158.598175 70.224525,160.591690 
	C72.530991,160.846832 72.530991,160.846832 75.750481,153.546600 
	C76.356796,154.533783 76.806862,155.266541 77.067062,156.789261 
	C77.163002,157.856506 77.258942,158.923737 77.394501,160.559464 
	C78.585869,160.372925 79.777229,160.186386 81.229881,159.435532 
M157.958588,150.941620 
	C157.958588,150.941620 157.914139,150.900085 157.203003,151.180222 
	C156.228989,150.894775 155.254974,150.609314 154.383270,150.353851 
	C155.403625,148.973679 156.287766,147.969284 156.875702,146.814133 
	C156.987640,146.594193 155.856506,145.268097 155.422577,145.329269 
	C153.894196,145.544815 152.296600,145.927612 150.976532,146.684937 
	C150.315582,147.064133 150.103134,148.364853 149.852036,149.293182 
	C149.021332,152.364395 147.529266,151.115860 145.746262,149.237289 
	C142.808014,148.023026 143.099823,150.285706 142.280273,151.707840 
	C141.718185,151.536774 141.156113,151.365707 140.007034,150.738495 
	C136.785828,150.435944 133.564606,150.133408 129.965302,149.795349 
	C129.776352,152.409958 129.616287,154.624908 128.927078,156.902863 
	C128.576324,156.958389 128.225571,157.013916 127.616333,156.227921 
	C127.519112,154.279327 127.421890,152.330734 127.322777,150.344223 
	C119.789429,148.436295 125.386261,156.487183 120.857910,157.422836 
	C120.611305,155.778076 120.624329,154.054855 120.037354,152.568604 
	C119.627220,151.530121 118.396141,150.815872 117.531754,149.956802 
	C116.859314,151.008972 116.049171,152.001373 115.558235,153.132324 
	C115.169487,154.027908 115.172348,155.093475 114.357277,155.714584 
	C114.066093,154.075882 113.393341,152.395721 113.565964,150.807434 
	C113.890121,147.824738 113.063354,145.902145 109.932686,145.686676 
	C107.215439,145.499649 104.475136,145.647781 101.909927,145.647781 
	C101.909927,151.312195 101.909927,156.166245 101.909927,161.155945 
	C106.832085,160.956924 111.711357,162.695801 115.614777,158.212036 
	C116.937843,159.248917 118.167473,160.980255 119.604027,161.173538 
	C122.328049,161.540039 125.170685,161.024902 128.233078,161.360870 
	C128.828629,161.214554 129.424194,161.068253 130.854004,161.058426 
	C131.875305,160.037628 133.175171,159.169510 133.841263,157.954041 
	C134.537140,156.684250 134.623062,155.080215 135.028473,153.403793 
	C138.674408,155.454681 134.021988,162.302933 141.394608,160.746857 
	C141.870728,160.186050 142.346863,159.625259 142.958252,159.539703 
	C142.958252,159.539703 143.156265,159.992447 143.141449,160.549515 
	C144.217896,160.513458 145.294357,160.477402 146.415695,160.432373 
	C146.415695,160.432373 146.451721,160.462601 146.980804,159.942429 
	C147.262451,157.984238 147.544113,156.026047 147.978348,153.006989 
	C151.560776,160.884750 151.560776,160.884750 153.571579,160.506302 
	C155.425095,158.584015 151.500854,153.077377 157.695831,154.644653 
	C157.695831,154.644653 157.837799,155.008209 157.624817,155.800873 
	C158.089828,161.374756 158.801407,161.920151 164.318008,160.443665 
	C165.993439,160.717316 167.668854,160.990967 169.841675,161.345856 
	C169.426483,157.274689 169.067795,153.757614 168.709122,150.240555 
	C168.194214,150.000732 167.679306,149.760895 167.164413,149.521057 
	C166.405380,150.870010 165.394608,152.142044 164.952881,153.587936 
	C164.434937,155.283310 165.540726,158.061783 161.960464,156.388199 
	C161.895889,155.923309 161.831299,155.458435 161.918655,154.196518 
	C161.856995,153.122375 161.795319,152.048218 161.803986,150.502701 
	C161.651138,150.128204 161.389191,150.021515 160.354752,149.974884 
	C159.898285,150.029205 159.441818,150.083511 158.424118,150.078629 
	C158.250275,150.370712 158.076416,150.662811 157.958588,150.941620 
M139.930466,49.473656 
	C139.281250,49.331654 138.632034,49.189655 137.221527,49.092255 
	C134.904160,49.771027 132.586792,50.449799 129.450348,51.056458 
	C128.628387,51.041248 127.806435,51.026043 126.827225,50.239471 
	C124.224930,49.841301 121.622635,49.443134 118.999329,49.015156 
	C118.999329,49.015156 118.966263,48.999752 119.252678,48.396713 
	C120.825401,47.256538 122.398125,46.116367 124.685966,44.915195 
	C128.240387,42.727226 127.770348,41.131466 123.485329,40.001438 
	C123.485329,40.001438 123.005196,39.960709 122.919701,39.369778 
	C122.503700,39.067963 122.087700,38.766151 121.671700,38.464336 
	C121.458160,38.990929 121.244614,39.517525 120.612114,40.559208 
	C119.754158,40.743561 118.896210,40.927910 118.006081,40.383682 
	C117.987396,39.899967 117.968704,39.416248 117.965340,38.158058 
	C117.638481,36.754440 117.311623,35.350822 116.691566,33.513863 
	C116.131828,33.665504 115.572083,33.817142 114.490402,34.185505 
	C114.004585,34.471565 113.518776,34.757626 112.479042,34.553059 
	C111.894043,32.752472 111.309044,30.951885 110.724045,29.151299 
	C110.351242,29.214611 109.978432,29.277922 109.605629,29.341232 
	C109.406204,30.206835 109.206787,31.072435 108.328171,31.942768 
	C107.875534,31.958231 107.422897,31.973696 106.136139,31.998226 
	C104.741898,32.010044 103.347664,32.021862 101.455406,31.562021 
	C100.814682,30.121481 100.173950,28.680943 98.976097,25.987816 
	C97.613289,28.416765 96.276802,29.779085 96.165253,31.235243 
	C95.995476,33.451511 96.674362,35.732792 96.338448,38.138638 
	C95.673134,38.227325 95.007828,38.316013 93.770554,37.929642 
	C93.022812,36.758350 92.275063,35.587059 91.341721,34.125046 
	C90.428078,36.211834 89.678085,37.924824 88.688461,40.185162 
	C86.750946,38.281994 85.299957,36.762947 83.740547,35.364815 
	C82.969704,34.673695 81.998978,34.205517 81.118690,33.636463 
	C81.047554,34.751163 80.625053,35.993130 80.973740,36.955765 
	C81.877892,39.451962 83.121513,41.825199 84.047775,44.005943 
	C84.047775,44.005943 84.251099,44.229927 83.619461,44.241753 
	C81.654488,42.997726 79.807274,41.448692 77.679207,40.627113 
	C76.454811,40.154419 74.775749,40.859398 73.301353,41.034260 
	C73.896713,42.368271 74.218208,43.960533 75.164284,44.963818 
	C76.114395,45.971378 77.686783,46.392155 79.203278,47.631645 
	C78.288338,47.971611 76.911446,48.874535 76.531380,48.562664 
	C73.433044,46.020275 71.846245,48.343243 70.042778,50.285225 
	C69.293442,51.092106 68.419479,51.783245 67.632622,52.392578 
	C67.632622,52.392578 67.742027,52.308735 67.655785,51.700726 
	C67.313004,51.508636 66.970222,51.316544 66.144600,50.902130 
	C65.754135,50.543091 65.363678,50.184052 64.649796,49.406155 
	C64.315697,49.312119 63.981598,49.218082 62.920830,49.153709 
	C61.952797,49.117954 60.984764,49.082203 59.682888,48.574829 
	C59.121952,49.049629 58.561012,49.524426 57.747387,50.510967 
	C57.187649,51.015984 56.627911,51.521000 55.333805,52.080887 
	C52.266876,54.759228 52.486298,56.495026 56.690994,59.185535 
	C57.136292,59.766186 57.581589,60.346836 57.997993,61.738651 
	C57.998215,62.820892 57.998436,63.903133 57.299675,65.146561 
	C56.164711,65.429115 55.029751,65.711670 53.119961,66.192368 
	C53.153282,72.798874 53.186607,79.405380 53.461838,86.656021 
	C53.380630,87.099869 53.299423,87.543709 52.665981,88.295738 
	C53.054432,89.866592 53.442879,91.437454 54.118706,93.478859 
	C54.409668,93.698196 54.700630,93.917542 54.983994,94.696106 
	C54.970455,95.068726 54.956913,95.441338 54.582638,96.612709 
	C58.630226,120.528458 83.342636,137.466202 107.359604,132.347595 
	C127.032898,128.154724 138.987564,115.706390 143.951904,95.459244 
	C143.945358,94.604385 143.938812,93.749519 143.976028,92.982452 
	C143.976028,92.982452 143.892029,92.931793 144.579361,92.889496 
	C144.579742,90.984200 144.580139,89.078903 144.362823,86.313988 
	C144.443497,85.142967 144.524185,83.971947 144.908295,82.127602 
	C145.228012,79.684265 145.974792,77.202400 145.758667,74.807411 
	C145.492294,71.855675 148.108841,68.189949 143.391586,65.803741 
	C142.593506,65.540512 141.795441,65.277275 140.997711,64.153412 
	C140.944656,62.721497 140.891602,61.289585 140.857452,59.890305 
	C140.857452,59.890305 140.853592,59.885307 141.690094,59.938717 
	C145.884293,58.797832 143.783600,55.386391 143.747910,53.088299 
	C143.731903,52.056656 141.275406,51.062904 139.997086,50.008736 
	C139.997086,50.008736 139.952515,50.078651 139.930466,49.473656 
M37.214966,160.688934 
	C38.809238,160.782990 40.403507,160.877045 42.657940,161.107193 
	C44.608738,160.198029 46.559536,159.288879 48.733910,158.275528 
	C50.812263,161.739227 56.367176,162.944122 61.089104,159.090729 
	C61.097630,156.827133 61.397526,154.506790 60.972965,152.327560 
	C60.800304,151.441315 59.053005,150.861832 57.297760,150.276245 
	C56.776051,152.667938 56.254341,155.059631 55.732632,157.451324 
	C55.154629,157.366180 54.576626,157.281021 53.998623,157.195877 
	C53.814575,153.322739 53.630527,149.449615 53.407848,144.763504 
	C51.105206,145.447601 49.166206,145.705673 47.571140,146.586548 
	C45.959751,147.476410 44.689240,148.983536 43.520035,150.001953 
	C42.991169,153.133087 42.483967,156.136002 41.347534,158.845840 
	C39.834034,156.929153 38.320538,155.012482 36.887791,153.198059 
	C38.402149,150.779312 39.720169,148.674149 41.038189,146.569000 
	C40.712486,146.193970 40.386784,145.818939 40.061081,145.443924 
	C37.874321,146.769241 35.687561,148.094574 34.105549,149.053391 
	C32.830956,147.796951 31.490591,146.475693 30.150229,145.154434 
	C29.687508,145.462601 29.224785,145.770767 28.762064,146.078949 
	C28.762064,150.206573 28.637568,154.340942 28.859770,158.456558 
	C28.908278,159.354996 30.195108,160.186554 30.911625,161.048920 
	C31.609468,160.347443 32.486778,159.746246 32.951511,158.914505 
	C33.364349,158.175659 33.319477,157.181061 33.635166,155.409927 
	C35.158047,157.427811 36.125446,158.709671 37.214966,160.688934 
M69.144066,37.490696 
	C69.570099,37.793098 69.996132,38.095505 70.422165,38.397911 
	C70.535683,37.950375 70.649200,37.502838 70.762726,37.055305 
	C70.264038,37.001797 69.765358,36.948284 69.144066,37.490696 
M148.434982,63.705341 
	C148.706070,63.989487 148.977142,64.273628 149.248230,64.557785 
	C149.365768,64.445335 149.591721,64.241379 149.585205,64.233643 
	C149.332260,63.933956 149.058075,63.652199 148.434982,63.705341 
M69.797615,43.391727 
	C69.793396,43.785847 69.789177,44.179970 69.784958,44.574089 
	C69.948524,44.575626 70.254242,44.588135 70.255089,44.577122 
	C70.285362,44.184868 70.287094,43.790413 69.797615,43.391727 
z"/>
<path fill="#72554C" opacity="1.000000" stroke="none" 
	d="
M143.872269,96.310806 
	C138.987564,115.706390 127.032898,128.154724 107.359604,132.347595 
	C83.342636,137.466202 58.630226,120.528458 55.234402,96.245209 
	C63.257793,95.842529 70.629417,95.807343 78.410080,95.864792 
	C80.209869,95.895798 81.600616,95.834160 83.454391,95.825684 
	C88.351669,95.878845 92.785927,95.878845 97.688835,95.878845 
	C96.700768,98.698471 95.897934,100.989487 95.078087,103.329063 
	C99.855255,105.195213 96.706604,108.725273 96.545807,111.830025 
	C93.742081,116.215790 91.158531,120.201653 85.192863,119.199776 
	C84.487930,119.081398 83.094383,120.327484 82.810913,121.198463 
	C82.522621,122.084274 82.893990,123.627098 83.564156,124.257553 
	C84.228104,124.882164 86.108994,125.278282 86.623291,124.826515 
	C90.372475,121.533112 93.911560,118.000534 97.753952,114.219711 
	C98.319168,113.480339 98.647423,113.064751 99.216751,112.873398 
	C100.433388,114.470589 101.408943,115.843544 102.545868,117.533020 
	C105.300690,120.073578 107.790817,122.440720 110.551025,124.433815 
	C111.371223,125.026062 113.161346,124.964111 114.111824,124.458702 
	C114.813232,124.085732 115.387177,122.314171 115.088242,121.512375 
	C114.715134,120.511650 113.512154,119.548195 112.447289,119.132042 
	C109.938202,118.151459 107.298508,117.505066 104.559448,116.414726 
	C103.220383,114.312202 102.033531,112.518448 100.833862,110.415726 
	C100.545555,108.737236 100.270050,107.367722 100.346024,105.889229 
	C103.092598,107.574432 105.487694,109.368599 108.081543,111.464378 
	C113.669098,113.511810 119.027229,115.366943 124.476967,116.895538 
	C125.381989,117.149399 127.047653,116.246407 127.689125,115.379982 
	C128.179047,114.718231 127.989975,112.659744 127.422791,112.302528 
	C126.364815,111.636215 124.537567,111.167412 123.511520,111.646561 
	C118.284073,114.087669 113.711845,112.823746 109.107529,109.514145 
	C107.039032,107.469147 105.154640,105.696846 103.170547,103.609482 
	C102.423935,102.770058 101.777031,102.245682 101.144196,101.323456 
	C100.706635,99.440437 100.254990,97.955269 99.591133,95.772255 
	C103.846146,95.772255 107.425720,95.772255 111.425705,95.862488 
	C113.559425,95.891716 115.272736,95.830704 117.417313,95.824722 
	C126.523132,96.023438 135.197693,96.167122 143.872269,96.310806 
M83.970116,102.394615 
	C82.661125,102.211624 81.354477,101.893288 80.042702,101.870537 
	C75.778603,101.796577 71.512436,101.807266 67.247467,101.838562 
	C66.058701,101.847282 64.396988,101.612892 63.810970,102.263512 
	C63.170456,102.974640 63.036171,104.937462 63.587410,105.697479 
	C64.115097,106.425034 65.800896,106.498459 66.986443,106.529945 
	C71.454300,106.648621 75.942963,106.406723 80.389847,106.745773 
	C83.447060,106.978867 84.891907,106.260155 83.970116,102.394615 
M130.966888,101.674484 
	C126.820045,101.831062 122.673279,101.989830 118.526306,102.143021 
	C117.064445,102.197014 115.536369,102.019875 114.183647,102.428589 
	C113.820786,102.538216 113.735016,105.273605 113.958923,105.340462 
	C115.459641,105.788559 117.075356,105.958153 118.659454,105.999184 
	C122.546806,106.099869 126.442398,106.209290 130.323929,106.051216 
	C131.933441,105.985672 133.515503,105.246277 135.110046,104.813324 
	C133.968277,103.639572 132.826508,102.465813 130.966888,101.674484 
M81.204353,114.900017 
	C84.241638,113.779289 87.278923,112.658554 90.316216,111.537827 
	C90.160133,111.094055 90.004059,110.650291 89.847984,110.206520 
	C88.924049,110.206520 87.899719,109.942940 87.092857,110.250290 
	C82.628212,111.950943 78.289825,114.001778 73.438019,111.160568 
	C72.830086,110.804565 70.926971,111.785614 70.285217,112.642433 
	C69.783585,113.312202 69.894165,115.170906 70.476929,115.742256 
	C71.249458,116.499657 72.808350,116.931282 73.919632,116.765892 
	C76.111717,116.439644 78.228371,115.606491 81.204353,114.900017 
M102.032028,125.411469 
	C101.086128,122.445358 99.098404,121.877739 96.887863,123.758659 
	C96.206512,124.338409 96.123962,126.885788 96.768265,127.528130 
	C98.896484,129.649826 100.846390,128.973877 102.032028,125.411469 
z"/>
<path fill="#F5FBF3" opacity="1.000000" stroke="none" 
	d="
M57.998657,64.985374 
	C57.998436,63.903133 57.998215,62.820892 58.328171,61.521576 
	C60.596622,63.946953 62.959362,64.065559 64.487206,61.336586 
	C65.986687,58.658249 66.599976,55.483761 67.602188,52.527016 
	C68.419479,51.783245 69.293442,51.092106 70.042778,50.285225 
	C71.846245,48.343243 73.433044,46.020275 76.531380,48.562664 
	C76.911446,48.874535 78.288338,47.971611 79.449059,47.382587 
	C80.203201,47.864586 80.711563,48.595642 81.200394,49.670895 
	C81.180870,50.797092 81.180870,51.579094 81.180870,52.988728 
	C83.777512,51.504578 85.791855,50.098331 87.999474,49.135010 
	C98.278091,44.649796 107.807762,46.401928 117.028687,52.760406 
	C117.897629,51.435474 118.431953,50.217613 118.966263,48.999756 
	C118.966263,48.999752 118.999329,49.015156 119.006912,49.453224 
	C119.907578,51.267380 120.610222,53.584797 121.735619,53.812462 
	C123.729675,54.215847 127.064316,55.255360 126.984474,51.010834 
	C127.806435,51.026043 128.628387,51.041248 129.844162,51.510059 
	C129.241440,56.678928 130.943161,60.564358 134.976822,62.660553 
	C136.132980,63.261368 138.841705,60.874580 140.838531,59.857666 
	C140.891602,61.289585 140.944656,62.721497 140.539917,64.673676 
	C135.387833,65.462837 130.693542,65.731720 125.649963,65.999969 
	C124.602165,65.994431 123.903633,65.989525 122.987411,65.872208 
	C122.310310,65.600113 121.850899,65.440437 121.117828,65.244522 
	C120.556686,65.417854 120.269218,65.627434 119.686424,65.983841 
	C118.263046,66.759727 117.134995,67.388794 115.667313,68.050293 
	C113.999794,68.953873 112.671890,69.825035 111.043228,70.744308 
	C109.498962,71.877312 108.255463,72.962189 106.703491,74.185051 
	C104.336533,78.226166 102.278030,82.129295 100.162483,86.268265 
	C100.105446,86.504089 100.309128,86.944519 100.207764,87.289810 
	C99.565002,88.370689 99.023598,89.106285 97.415108,91.291702 
	C96.985191,77.052628 88.900139,70.242859 77.929962,65.677856 
	C77.583763,65.274323 77.312111,65.285042 76.658157,65.597641 
	C75.765930,65.725136 75.259865,65.820221 74.373093,65.938339 
	C73.230484,66.022064 72.468597,66.082748 71.366547,65.935318 
	C66.683807,65.479927 62.341232,65.232651 57.998657,64.985374 
M101.707253,55.051434 
	C105.955475,57.050400 110.203690,59.049366 114.451912,61.048332 
	C114.760696,60.604145 115.069473,60.159958 115.378258,59.715771 
	C114.008682,58.279327 112.866524,56.453098 111.219528,55.492134 
	C108.295364,53.785992 105.065010,52.604626 101.101341,51.065376 
	C92.343925,50.938320 84.671440,55.127163 83.262871,61.845005 
	C88.948593,57.584064 94.208572,53.953594 101.707253,55.051434 
M100.121536,62.971954 
	C102.962448,63.971836 105.803360,64.971718 109.723991,66.351616 
	C107.490334,59.807354 103.008278,59.246944 98.911446,59.155479 
	C94.564468,59.058426 90.126167,59.943966 87.329094,65.804802 
	C89.524887,65.536179 90.847534,65.522804 92.085037,65.191460 
	C94.508301,64.542633 96.884079,63.716473 100.121536,62.971954 
M98.453331,66.981186 
	C95.798599,66.892456 93.414467,67.723763 94.369911,70.774597 
	C94.983719,72.734497 96.874100,75.114922 98.659645,75.605392 
	C99.894569,75.944611 102.831734,73.694069 103.405365,72.043648 
	C104.435265,69.080444 102.629112,67.073555 98.453331,66.981186 
z"/>
<path fill="#55B05B" opacity="1.000000" stroke="none" 
	d="
M125.999237,66.000610 
	C130.693542,65.731720 135.387833,65.462837 140.539749,65.103996 
	C141.795441,65.277275 142.593506,65.540512 143.745361,66.368988 
	C144.267700,72.223137 144.436279,77.512032 144.604858,82.800926 
	C144.524185,83.971947 144.443497,85.142967 144.334625,87.133713 
	C144.168289,89.612892 144.030151,91.272346 143.892029,92.931793 
	C143.892029,92.931793 143.976028,92.982452 143.527435,92.964340 
	C137.152084,92.967255 131.225357,92.988297 125.235939,92.643990 
	C125.619812,88.697021 128.045105,87.214256 131.177780,86.056183 
	C136.871414,83.951393 138.771271,80.601280 137.599503,74.193275 
	C134.962585,75.336449 132.146103,75.921463 130.234344,77.561249 
	C128.235657,79.275612 126.493805,80.175491 123.985046,79.330734 
	C123.978043,78.956238 123.977913,78.742210 124.463310,78.666389 
	C125.297089,74.536606 125.648170,70.268608 125.999237,66.000610 
z"/>
<path fill="#54B05A" opacity="1.000000" stroke="none" 
	d="
M57.649166,65.065964 
	C62.341232,65.232651 66.683807,65.479927 71.359077,66.291824 
	C71.765945,67.565071 71.840118,68.273697 71.840210,69.318939 
	C71.808350,70.110947 71.850571,70.566345 71.815613,71.342545 
	C71.793510,72.096581 71.848595,72.529823 71.853928,73.231461 
	C71.840057,73.678276 71.875946,73.856682 71.830017,74.463501 
	C71.792931,76.919373 71.837669,78.946846 71.686096,81.126678 
	C68.156609,78.110725 65.393730,73.794868 59.697769,75.195381 
	C59.297733,80.924911 61.188885,84.200478 66.797218,86.094994 
	C70.346863,87.294067 71.942001,89.232628 71.254501,92.893906 
	C65.562492,93.330757 60.277042,93.733818 54.991592,94.136879 
	C54.700630,93.917542 54.409668,93.698196 54.004833,92.818771 
	C53.666710,90.768311 53.442459,89.377937 53.218216,87.987556 
	C53.299423,87.543709 53.380630,87.099869 53.503296,85.891022 
	C53.661427,78.748756 53.778107,72.371490 53.894787,65.994232 
	C55.029751,65.711670 56.164711,65.429115 57.649166,65.065964 
z"/>
<path fill="#F6AE3C" opacity="1.000000" stroke="none" 
	d="
M116.694061,52.867477 
	C107.807762,46.401928 98.278091,44.649796 87.999474,49.135010 
	C85.791855,50.098331 83.777512,51.504578 81.180870,52.988728 
	C81.180870,51.579094 81.180870,50.797092 81.435364,49.429092 
	C82.543610,47.305370 83.397354,45.767651 84.251099,44.229927 
	C84.251099,44.229927 84.047775,44.005943 84.465408,44.041061 
	C88.036194,42.185688 91.189354,40.295193 94.342514,38.404701 
	C95.007828,38.316013 95.673134,38.227325 97.038490,38.135143 
	C98.493515,38.085896 99.248505,38.040138 100.411255,38.055122 
	C102.177238,38.299133 103.535439,38.482403 105.111458,38.871529 
	C106.477394,39.464722 107.625519,39.852055 108.783310,40.252529 
	C108.792984,40.265671 108.780052,40.300686 108.961594,40.564598 
	C110.677673,41.947052 112.212212,43.065590 113.762306,44.169685 
	C113.777870,44.155247 113.818672,44.151379 113.885223,44.400810 
	C114.227119,44.839142 114.502464,45.028049 114.772125,45.255615 
	C114.766449,45.294277 114.777771,45.371609 114.871582,45.707851 
	C115.541611,48.318558 116.117836,50.593018 116.694061,52.867477 
z"/>
<path fill="#795E54" opacity="1.000000" stroke="none" 
	d="
M69.998764,150.043701 
	C72.400116,149.988525 74.862450,149.585281 77.182892,149.991867 
	C78.938675,150.299484 80.513329,151.640884 82.850655,152.885422 
	C83.088051,152.663254 84.064026,150.966782 85.103668,150.926819 
	C87.981216,150.816208 91.421501,150.594360 93.563454,152.026093 
	C94.716461,152.796799 94.614693,157.521225 93.392776,159.309570 
	C91.254898,162.438477 87.677696,161.989182 84.577827,159.874176 
	C83.585075,159.196823 82.665894,158.411621 81.333344,157.586975 
	C79.721397,156.998566 78.489159,156.498947 77.256927,155.999313 
	C76.806862,155.266541 76.356796,154.533783 75.750481,153.546600 
	C72.530991,160.846832 72.530991,160.846832 70.353989,160.088654 
	C70.319962,158.061829 70.156464,156.538055 69.992966,155.014282 
	C68.996147,155.245148 67.236633,155.304901 67.139572,155.737610 
	C66.790451,157.293915 67.002510,158.976105 67.002510,160.585251 
	C62.260269,162.253601 63.053375,159.106201 63.275650,156.208725 
	C63.418255,155.122421 63.286301,154.575043 63.154343,154.027649 
	C63.105911,153.260010 63.057480,152.492386 63.270798,151.254028 
	C63.745041,150.616776 63.894577,150.405640 63.981155,150.149918 
	C64.440384,150.091599 64.899612,150.033279 65.737534,150.410675 
	C67.927376,153.079453 69.336960,153.370102 69.998764,150.043701 
z"/>
<path fill="#F5FBF3" opacity="1.000000" stroke="none" 
	d="
M54.987793,94.416489 
	C60.277042,93.733818 65.562492,93.330757 71.693939,92.930252 
	C73.127136,92.916977 73.714325,92.901131 74.477005,92.917877 
	C74.652496,92.950478 74.948486,93.150047 75.124649,93.393112 
	C76.225647,93.562767 77.150490,93.489349 78.459671,93.368538 
	C79.875549,93.344177 80.907089,93.367210 82.288071,93.597000 
	C86.778999,93.661659 90.920486,93.519554 95.481232,93.337280 
	C97.578331,93.301025 99.256172,93.304932 101.100845,93.494995 
	C101.868736,93.582565 102.469788,93.483971 103.378273,93.352112 
	C104.096413,93.344879 104.507126,93.370903 105.099686,93.569138 
	C105.884583,93.627571 106.487617,93.513794 107.129120,93.311905 
	C107.167572,93.223793 107.050308,93.071434 107.370064,93.148369 
	C108.120880,93.167198 108.551933,93.109093 109.401901,93.140038 
	C111.525330,93.281563 113.229851,93.334030 115.260643,93.587784 
	C118.063187,93.537842 120.539467,93.286621 123.153984,92.781967 
	C123.372673,92.353722 123.453133,92.178894 123.715141,92.188805 
	C124.364006,92.585480 124.831306,92.797401 125.298615,93.009331 
	C131.225357,92.988297 137.152084,92.967255 143.505554,92.920441 
	C143.938812,93.749519 143.945358,94.604385 143.912079,95.885025 
	C135.197693,96.167122 126.523132,96.023438 117.145363,95.598076 
	C114.629875,95.468353 112.817589,95.620308 111.005302,95.772255 
	C107.425720,95.772255 103.846146,95.772255 99.591133,95.772255 
	C100.254990,97.955269 100.706635,99.440437 101.109451,101.684082 
	C101.017731,102.921921 100.974846,103.401276 100.666641,103.894608 
	C100.265724,104.605125 100.130127,105.301659 99.994537,105.998199 
	C100.270050,107.367722 100.545555,108.737236 100.487747,110.526550 
	C99.761513,111.513947 99.368599,112.081558 98.975685,112.649170 
	C98.647423,113.064751 98.319168,113.480339 97.574875,113.479637 
	C97.040100,112.572998 96.921364,112.082642 96.802628,111.592285 
	C96.706604,108.725273 99.855255,105.195213 95.078087,103.329063 
	C95.897934,100.989487 96.700768,98.698471 97.688835,95.878845 
	C92.785927,95.878845 88.351669,95.878845 83.199707,95.603966 
	C80.988358,95.476776 79.494698,95.624466 78.001045,95.772156 
	C70.629417,95.807343 63.257793,95.842529 55.414768,95.845840 
	C54.956913,95.441338 54.970455,95.068726 54.987793,94.416489 
z"/>
<path fill="#775C53" opacity="1.000000" stroke="none" 
	d="
M115.001099,157.917465 
	C111.711357,162.695801 106.832085,160.956924 101.909927,161.155945 
	C101.909927,156.166245 101.909927,151.312195 101.909927,145.647781 
	C104.475136,145.647781 107.215439,145.499649 109.932686,145.686676 
	C113.063354,145.902145 113.890121,147.824738 113.565964,150.807434 
	C113.393341,152.395721 114.066093,154.075882 114.678757,156.204712 
	C115.000519,157.102386 115.000809,157.509933 115.001099,157.917465 
z"/>
<path fill="#877169" opacity="1.000000" stroke="none" 
	d="
M60.919037,159.985992 
	C56.367176,162.944122 50.812263,161.739227 48.733910,158.275528 
	C46.559536,159.288879 44.608738,160.198029 42.314350,160.784119 
	C41.960484,160.291046 41.950207,160.121063 41.954990,159.748291 
	C41.970051,159.545517 41.976761,159.138901 41.976761,159.138901 
	C42.483967,156.136002 42.991169,153.133087 43.520035,150.001953 
	C44.689240,148.983536 45.959751,147.476410 47.571140,146.586548 
	C49.166206,145.705673 51.105206,145.447601 53.407848,144.763504 
	C53.630527,149.449615 53.814575,153.322739 53.998623,157.195877 
	C54.576626,157.281021 55.154629,157.366180 55.732632,157.451324 
	C56.254341,155.059631 56.776051,152.667938 57.653820,150.651825 
	C58.005722,153.109482 57.676914,155.265488 58.127445,157.244034 
	C58.371181,158.314407 59.945160,159.081879 60.919037,159.985992 
M46.652008,151.291061 
	C46.002659,151.628281 45.353310,151.965500 43.939812,152.699570 
	C45.389988,152.834625 46.090618,153.112000 46.494930,152.877808 
	C46.898670,152.643951 47.005726,151.897873 46.652008,151.291061 
z"/>
<path fill="#755B54" opacity="1.000000" stroke="none" 
	d="
M41.662148,158.992371 
	C41.976761,159.138901 41.970051,159.545517 41.553047,159.763947 
	C39.788311,159.985428 38.440578,159.988480 37.092846,159.991516 
	C36.125446,158.709671 35.158047,157.427811 33.635166,155.409927 
	C33.319477,157.181061 33.364349,158.175659 32.951511,158.914505 
	C32.486778,159.746246 31.609468,160.347443 30.911627,161.048920 
	C30.195108,160.186554 28.908278,159.354996 28.859770,158.456558 
	C28.637568,154.340942 28.762064,150.206573 28.762064,146.078949 
	C29.224785,145.770767 29.687508,145.462601 30.150229,145.154434 
	C31.490591,146.475693 32.830956,147.796951 34.105549,149.053391 
	C35.687561,148.094574 37.874321,146.769241 40.061081,145.443924 
	C40.386784,145.818939 40.712486,146.193970 41.038189,146.569000 
	C39.720169,148.674149 38.402149,150.779312 36.887791,153.198059 
	C38.320538,155.012482 39.834034,156.929153 41.662148,158.992371 
z"/>
<path fill="#58B25E" opacity="1.000000" stroke="none" 
	d="
M140.847992,59.873985 
	C138.841705,60.874580 136.132980,63.261368 134.976822,62.660553 
	C130.943161,60.564358 129.241440,56.678928 130.253693,51.546120 
	C132.586792,50.449799 134.904160,49.771027 137.782272,49.296471 
	C138.879517,49.693340 139.416016,49.885994 139.952515,50.078651 
	C139.952515,50.078651 139.997086,50.008736 140.123779,50.365562 
	C143.053162,53.605446 142.479416,56.710754 140.853592,59.885307 
	C140.853592,59.885307 140.857452,59.890305 140.847992,59.873985 
z"/>
<path fill="#57B35D" opacity="1.000000" stroke="none" 
	d="
M67.617401,52.459793 
	C66.599976,55.483761 65.986687,58.658249 64.487206,61.336586 
	C62.959362,64.065559 60.596622,63.946953 58.342621,61.115993 
	C57.581589,60.346836 57.136292,59.766186 56.375099,58.624218 
	C56.062195,56.050606 56.065182,54.038307 56.068169,52.026012 
	C56.627911,51.521000 57.187649,51.015984 58.164909,50.236488 
	C59.060528,49.656822 59.538628,49.351635 60.016731,49.046448 
	C60.984764,49.082203 61.952797,49.117954 63.447655,49.350033 
	C64.307388,49.639240 64.640297,49.732124 64.973213,49.825008 
	C65.363678,50.184052 65.754135,50.543091 66.488518,51.283890 
	C67.135635,51.880013 67.438828,52.094376 67.742027,52.308735 
	C67.742027,52.308735 67.632622,52.392578 67.617401,52.459793 
z"/>
<path fill="#796058" opacity="1.000000" stroke="none" 
	d="
M146.021393,149.935226 
	C147.529266,151.115860 149.021332,152.364395 149.852036,149.293182 
	C150.103134,148.364853 150.315582,147.064133 150.976532,146.684937 
	C152.296600,145.927612 153.894196,145.544815 155.422577,145.329269 
	C155.856506,145.268097 156.987640,146.594193 156.875702,146.814133 
	C156.287766,147.969284 155.403625,148.973679 154.383270,150.353851 
	C155.254974,150.609314 156.228989,150.894775 157.596649,151.462982 
	C157.941223,152.592377 157.892120,153.439041 157.843018,154.285690 
	C151.500854,153.077377 155.425095,158.584015 153.571579,160.506302 
	C151.560776,160.884750 151.560776,160.884750 147.978348,153.006989 
	C147.544113,156.026047 147.262451,157.984238 146.586365,159.724930 
	C146.135086,156.316696 146.078232,153.125961 146.021393,149.935226 
z"/>
<path fill="#765D52" opacity="1.000000" stroke="none" 
	d="
M115.307938,158.064758 
	C115.000809,157.509933 115.000519,157.102386 115.000763,156.389206 
	C115.172348,155.093475 115.169487,154.027908 115.558235,153.132324 
	C116.049171,152.001373 116.859314,151.008972 117.531754,149.956802 
	C118.396141,150.815872 119.627220,151.530121 120.037354,152.568604 
	C120.624329,154.054855 120.611305,155.778076 120.857910,157.422836 
	C125.386261,156.487183 119.789429,148.436295 127.322777,150.344223 
	C127.421890,152.330734 127.519112,154.279327 127.725685,157.029633 
	C127.878036,158.846252 127.921036,159.861130 127.964043,160.876022 
	C125.170685,161.024902 122.328049,161.540039 119.604027,161.173538 
	C118.167473,160.980255 116.937843,159.248917 115.307938,158.064758 
z"/>
<path fill="#775C53" opacity="1.000000" stroke="none" 
	d="
M140.876068,160.954056 
	C134.021988,162.302933 138.674408,155.454681 135.028473,153.403793 
	C134.623062,155.080215 134.537140,156.684250 133.841263,157.954041 
	C133.175171,159.169510 131.875305,160.037628 130.415283,160.575714 
	C129.803116,159.008621 129.629669,157.924240 129.456238,156.839844 
	C129.616287,154.624908 129.776352,152.409958 129.965302,149.795349 
	C133.564606,150.133408 136.785828,150.435944 140.390045,151.399307 
	C140.807404,155.024765 140.841736,157.989410 140.876068,160.954056 
z"/>
<path fill="#FDEFCE" opacity="1.000000" stroke="none" 
	d="
M94.056534,38.167171 
	C91.189354,40.295193 88.036194,42.185688 84.556335,44.161850 
	C83.121513,41.825199 81.877892,39.451962 80.973740,36.955765 
	C80.625053,35.993130 81.047554,34.751163 81.118690,33.636463 
	C81.998978,34.205517 82.969704,34.673695 83.740547,35.364815 
	C85.299957,36.762947 86.750946,38.281994 88.688461,40.185162 
	C89.678085,37.924824 90.428078,36.211834 91.341721,34.125046 
	C92.275063,35.587059 93.022812,36.758350 94.056534,38.167171 
z"/>
<path fill="#735C52" opacity="1.000000" stroke="none" 
	d="
M161.975143,157.095337 
	C165.540726,158.061783 164.434937,155.283310 164.952881,153.587936 
	C165.394608,152.142044 166.405380,150.870010 167.164413,149.521057 
	C167.679306,149.760895 168.194214,150.000732 168.709122,150.240555 
	C169.067795,153.757614 169.426483,157.274689 169.841675,161.345856 
	C167.668854,160.990967 165.993439,160.717316 163.660614,160.225159 
	C162.660522,159.036224 162.317841,158.065781 161.975143,157.095337 
z"/>
<path fill="#FEF0D0" opacity="1.000000" stroke="none" 
	d="
M117.028687,52.760406 
	C116.117836,50.593018 115.541611,48.318558 115.166901,45.501705 
	C116.258362,43.676968 117.148308,42.394615 118.038254,41.112263 
	C118.896210,40.927910 119.754158,40.743561 121.150146,40.285614 
	C122.127182,39.994919 122.566193,39.977814 123.005196,39.960709 
	C123.005196,39.960709 123.485329,40.001438 123.733536,40.425953 
	C123.978111,42.225708 123.974480,43.600945 123.970856,44.976189 
	C122.398125,46.116367 120.825401,47.256538 119.109474,48.698235 
	C118.431953,50.217613 117.897629,51.435474 117.028687,52.760406 
z"/>
<path fill="#FDEFCE" opacity="1.000000" stroke="none" 
	d="
M83.935280,44.235840 
	C83.397354,45.767651 82.543610,47.305370 81.454895,49.084892 
	C80.711563,48.595642 80.203201,47.864586 79.340652,47.101807 
	C77.686783,46.392155 76.114395,45.971378 75.164284,44.963818 
	C74.218208,43.960533 73.896713,42.368271 73.301353,41.034264 
	C74.775749,40.859398 76.454811,40.154419 77.679207,40.627113 
	C79.807274,41.448692 81.654488,42.997726 83.935280,44.235840 
z"/>
<path fill="#FDEFCE" opacity="1.000000" stroke="none" 
	d="
M100.003487,37.994385 
	C99.248505,38.040138 98.493515,38.085896 97.365677,38.059055 
	C96.674362,35.732792 95.995476,33.451511 96.165253,31.235243 
	C96.276802,29.779085 97.613289,28.416765 98.976097,25.987816 
	C100.173950,28.680943 100.814682,30.121481 101.709396,32.164612 
	C101.310089,34.509594 100.656792,36.251991 100.003487,37.994385 
z"/>
<path fill="#FEF0D0" opacity="1.000000" stroke="none" 
	d="
M113.746742,44.184128 
	C112.212212,43.065590 110.677673,41.947052 109.301559,40.439735 
	C110.650978,38.381866 111.841965,36.712776 113.032959,35.043686 
	C113.518776,34.757626 114.004585,34.471565 114.767441,34.344452 
	C115.691238,34.317997 116.338005,34.132599 116.984764,33.947205 
	C117.311623,35.350822 117.638481,36.754440 117.605225,38.605698 
	C116.078995,40.763599 114.912872,42.473866 113.746742,44.184128 
z"/>
<path fill="#F5FBF3" opacity="1.000000" stroke="none" 
	d="
M53.507374,66.093300 
	C53.778107,72.371490 53.661427,78.748756 53.382339,85.568954 
	C53.186607,79.405380 53.153282,72.798874 53.507374,66.093300 
z"/>
<path fill="#FEF0D0" opacity="1.000000" stroke="none" 
	d="
M126.905853,50.625153 
	C127.064316,55.255360 123.729675,54.215847 121.735619,53.812462 
	C120.610222,53.584797 119.907578,51.267380 119.017426,49.468132 
	C121.622635,49.443134 124.224930,49.841301 126.905853,50.625153 
z"/>
<path fill="#765952" opacity="1.000000" stroke="none" 
	d="
M145.883820,149.586258 
	C146.078232,153.125961 146.135086,156.316696 146.321838,159.985016 
	C146.451721,160.462601 146.415695,160.432373 146.004501,160.293610 
	C144.780960,160.100708 143.968613,160.046570 143.156265,159.992447 
	C143.156265,159.992447 142.958252,159.539703 142.966248,158.861801 
	C142.926605,156.104355 142.878967,154.024796 142.831329,151.945251 
	C143.099823,150.285706 142.808014,148.023026 145.883820,149.586258 
z"/>
<path fill="#F5FBF3" opacity="1.000000" stroke="none" 
	d="
M112.755997,34.798370 
	C111.841965,36.712776 110.650978,38.381866 109.120018,40.175823 
	C108.780052,40.300686 108.792984,40.265671 108.848282,39.786854 
	C108.938171,36.851372 108.972771,34.394703 109.007370,31.938038 
	C109.206787,31.072435 109.406204,30.206835 109.605629,29.341232 
	C109.978432,29.277922 110.351242,29.214611 110.724045,29.151299 
	C111.309044,30.951885 111.894043,32.752472 112.755997,34.798370 
z"/>
<path fill="#785D54" opacity="1.000000" stroke="none" 
	d="
M61.004070,159.538361 
	C59.945160,159.081879 58.371181,158.314407 58.127445,157.244034 
	C57.676914,155.265488 58.005722,153.109482 58.016022,150.585083 
	C59.053005,150.861832 60.800304,151.441315 60.972965,152.327560 
	C61.397526,154.506790 61.097630,156.827133 61.004070,159.538361 
z"/>
<path fill="#F5FBF3" opacity="1.000000" stroke="none" 
	d="
M100.411255,38.055122 
	C100.656792,36.251991 101.310089,34.509594 101.958405,32.400440 
	C103.347664,32.021862 104.741898,32.010044 106.544754,32.375038 
	C106.266792,34.723125 105.580215,36.694401 104.893646,38.665672 
	C103.535439,38.482403 102.177238,38.299133 100.411255,38.055122 
z"/>
<path fill="#796058" opacity="1.000000" stroke="none" 
	d="
M161.967804,156.741760 
	C162.317841,158.065781 162.660522,159.036224 163.348694,160.229767 
	C158.801407,161.920151 158.089828,161.374756 158.126099,155.403595 
	C159.673828,155.002060 160.720261,154.997803 161.766708,154.993546 
	C161.831299,155.458435 161.895889,155.923309 161.967804,156.741760 
z"/>
<path fill="#F5FBF3" opacity="1.000000" stroke="none" 
	d="
M144.756577,82.464264 
	C144.436279,77.512032 144.267700,72.223137 144.044983,66.469162 
	C148.108841,68.189949 145.492294,71.855675 145.758667,74.807411 
	C145.974792,77.202400 145.228012,79.684265 144.756577,82.464264 
z"/>
<path fill="#FEF0D0" opacity="1.000000" stroke="none" 
	d="
M105.111458,38.871529 
	C105.580215,36.694401 106.266792,34.723125 106.961807,32.370506 
	C107.422897,31.973696 107.875534,31.958231 108.667770,31.940403 
	C108.972771,34.394703 108.938171,36.851372 108.838608,39.773712 
	C107.625519,39.852055 106.477394,39.464722 105.111458,38.871529 
z"/>
<path fill="#F5FBF3" opacity="1.000000" stroke="none" 
	d="
M141.271851,59.912010 
	C142.479416,56.710754 143.053162,53.605446 140.088409,50.387173 
	C141.275406,51.062904 143.731903,52.056656 143.747910,53.088299 
	C143.783600,55.386391 145.884293,58.797832 141.271851,59.912010 
z"/>
<path fill="#735C52" opacity="1.000000" stroke="none" 
	d="
M161.842682,154.595032 
	C160.720261,154.997803 159.673828,155.002060 158.232590,155.007263 
	C157.837799,155.008209 157.695831,154.644653 157.769424,154.465179 
	C157.892120,153.439041 157.941223,152.592377 157.952225,151.322906 
	C157.914139,150.900085 157.958588,150.941620 158.157440,150.881561 
	C158.647690,150.668777 158.857361,150.440887 158.985352,150.137817 
	C159.441818,150.083511 159.898285,150.029205 160.763428,150.245239 
	C161.311951,150.726379 161.499130,150.879211 161.733643,150.974075 
	C161.795319,152.048218 161.856995,153.122375 161.842682,154.595032 
z"/>
<path fill="#EEE6E1" opacity="1.000000" stroke="none" 
	d="
M142.555801,151.826538 
	C142.878967,154.024796 142.926605,156.104355 142.898621,158.624176 
	C142.346863,159.625259 141.870728,160.186050 141.135330,160.850464 
	C140.841736,157.989410 140.807404,155.024765 140.683548,151.627380 
	C141.156113,151.365707 141.718185,151.536774 142.555801,151.826538 
z"/>
<path fill="#F5FBF3" opacity="1.000000" stroke="none" 
	d="
M113.762306,44.169689 
	C114.912872,42.473866 116.078995,40.763599 117.597565,38.992935 
	C117.968704,39.416248 117.987396,39.899967 118.022171,40.747971 
	C117.148308,42.394615 116.258362,43.676968 115.073090,45.165462 
	C114.777771,45.371609 114.766449,45.294277 114.735733,44.986977 
	C114.409576,44.503578 114.114120,44.327477 113.818672,44.151379 
	C113.818672,44.151379 113.777870,44.155247 113.762306,44.169689 
z"/>
<path fill="#F5FBF3" opacity="1.000000" stroke="none" 
	d="
M55.700989,52.053452 
	C56.065182,54.038307 56.062195,56.050606 56.128876,58.492290 
	C52.486298,56.495026 52.266876,54.759228 55.700989,52.053452 
z"/>
<path fill="#775D54" opacity="1.000000" stroke="none" 
	d="
M77.161995,156.394287 
	C78.489159,156.498947 79.721397,156.998566 81.030685,157.858948 
	C81.148453,158.624969 81.189171,159.030243 80.737717,159.717651 
	C79.282005,159.996826 78.318443,159.993912 77.354889,159.990982 
	C77.258942,158.923737 77.163002,157.856506 77.161995,156.394287 
z"/>
<path fill="#F5FBF3" opacity="1.000000" stroke="none" 
	d="
M124.328407,44.945690 
	C123.974480,43.600945 123.978111,42.225708 123.974152,40.438370 
	C127.770348,41.131466 128.240387,42.727226 124.328407,44.945690 
z"/>
<path fill="#F5FBF3" opacity="1.000000" stroke="none" 
	d="
M52.942097,88.141647 
	C53.442459,89.377937 53.666710,90.768311 53.861145,92.583496 
	C53.442879,91.437454 53.054432,89.866592 52.942097,88.141647 
z"/>
<path fill="#DBD0CB" opacity="1.000000" stroke="none" 
	d="
M129.191650,156.871353 
	C129.629669,157.924240 129.803116,159.008621 129.998169,160.507477 
	C129.424194,161.068253 128.828629,161.214554 128.098557,161.118439 
	C127.921036,159.861130 127.878036,158.846252 127.854919,157.450409 
	C128.225571,157.013916 128.576324,156.958389 129.191650,156.871353 
z"/>
<path fill="#775D54" opacity="1.000000" stroke="none" 
	d="
M69.596199,150.017456 
	C69.336960,153.370102 67.927376,153.079453 66.059952,150.549011 
	C67.067009,150.164825 68.130318,150.078018 69.596199,150.017456 
z"/>
<path fill="#F5FBF3" opacity="1.000000" stroke="none" 
	d="
M144.235687,92.910645 
	C144.030151,91.272346 144.168289,89.612892 144.443466,87.563522 
	C144.580139,89.078903 144.579742,90.984200 144.235687,92.910645 
z"/>
<path fill="#775D54" opacity="1.000000" stroke="none" 
	d="
M69.972382,155.373169 
	C70.156464,156.538055 70.319962,158.061829 70.209824,159.808411 
	C69.941383,158.598175 69.946587,157.165131 69.972382,155.373169 
z"/>
<path fill="#7E6762" opacity="1.000000" stroke="none" 
	d="
M37.153908,160.340225 
	C38.440578,159.988480 39.788311,159.985428 41.537987,159.966721 
	C41.950207,160.121063 41.960484,160.291046 41.984268,160.716080 
	C40.403507,160.877045 38.809238,160.782990 37.153908,160.340225 
z"/>
<path fill="#795E54" opacity="1.000000" stroke="none" 
	d="
M77.374695,160.275223 
	C78.318443,159.993912 79.282005,159.996826 80.607079,159.999786 
	C79.777229,160.186386 78.585869,160.372925 77.374695,160.275223 
z"/>
<path fill="#796058" opacity="1.000000" stroke="none" 
	d="
M143.148865,160.270981 
	C143.968613,160.046570 144.780960,160.100708 145.982056,160.298096 
	C145.294357,160.477402 144.217896,160.513458 143.148865,160.270981 
z"/>
<path fill="#F5FBF3" opacity="1.000000" stroke="none" 
	d="
M69.205368,37.192734 
	C69.765358,36.948284 70.264038,37.001797 70.762726,37.055305 
	C70.649200,37.502838 70.535683,37.950375 70.422165,38.397911 
	C69.996132,38.095505 69.570099,37.793098 69.205368,37.192734 
z"/>
<path fill="#F5FBF3" opacity="1.000000" stroke="none" 
	d="
M116.838165,33.730530 
	C116.338005,34.132599 115.691238,34.317997 115.028412,34.236088 
	C115.572083,33.817142 116.131828,33.665504 116.838165,33.730530 
z"/>
<path fill="#F5FBF3" opacity="1.000000" stroke="none" 
	d="
M148.610840,63.536713 
	C149.058075,63.652199 149.332260,63.933956 149.585205,64.233643 
	C149.591721,64.241379 149.365768,64.445335 149.248230,64.557785 
	C148.977142,64.273628 148.706070,63.989487 148.610840,63.536713 
z"/>
<path fill="#F5FBF3" opacity="1.000000" stroke="none" 
	d="
M122.962448,39.665245 
	C122.566193,39.977814 122.127182,39.994919 121.359627,40.028069 
	C121.244614,39.517525 121.458160,38.990929 121.671700,38.464336 
	C122.087700,38.766151 122.503700,39.067963 122.962448,39.665245 
z"/>
<path fill="#F5FBF3" opacity="1.000000" stroke="none" 
	d="
M70.045212,43.393997 
	C70.287094,43.790413 70.285362,44.184868 70.255089,44.577122 
	C70.254242,44.588135 69.948524,44.575626 69.784958,44.574089 
	C69.789177,44.179970 69.793396,43.785847 70.045212,43.393997 
z"/>
<path fill="#F5FBF3" opacity="1.000000" stroke="none" 
	d="
M59.849808,48.810638 
	C59.538628,49.351635 59.060528,49.656822 58.291252,49.980621 
	C58.561012,49.524426 59.121952,49.049629 59.849808,48.810638 
z"/>
<path fill="#F5FBF3" opacity="1.000000" stroke="none" 
	d="
M139.941498,49.776154 
	C139.416016,49.885994 138.879517,49.693340 138.162918,49.274170 
	C138.632034,49.189655 139.281250,49.331654 139.941498,49.776154 
z"/>
<path fill="#775D54" opacity="1.000000" stroke="none" 
	d="
M63.081863,154.348236 
	C63.286301,154.575043 63.418255,155.122421 63.351471,155.818695 
	C63.104946,155.534637 63.057167,155.101730 63.081863,154.348236 
z"/>
<path fill="#796058" opacity="1.000000" stroke="none" 
	d="
M161.768814,150.738388 
	C161.499130,150.879211 161.311951,150.726379 161.095139,150.349106 
	C161.389191,150.021515 161.651138,150.128204 161.768814,150.738388 
z"/>
<path fill="#796058" opacity="1.000000" stroke="none" 
	d="
M158.704742,150.108231 
	C158.857361,150.440887 158.647690,150.668777 158.129440,150.888199 
	C158.076416,150.662811 158.250275,150.370712 158.704742,150.108231 
z"/>
<path fill="#775D54" opacity="1.000000" stroke="none" 
	d="
M63.732281,150.128983 
	C63.894577,150.405640 63.745041,150.616776 63.360783,150.878220 
	C63.032448,150.598083 63.130577,150.309723 63.732281,150.128983 
z"/>
<path fill="#F5FBF3" opacity="1.000000" stroke="none" 
	d="
M64.811508,49.615582 
	C64.640297,49.732124 64.307388,49.639240 63.810989,49.335201 
	C63.981598,49.218082 64.315697,49.312119 64.811508,49.615582 
z"/>
<path fill="#F5FBF3" opacity="1.000000" stroke="none" 
	d="
M67.698906,52.004730 
	C67.438828,52.094376 67.135635,51.880013 66.729935,51.395050 
	C66.970222,51.316544 67.313004,51.508636 67.698906,52.004730 
z"/>
<path fill="#F0E8E5" opacity="1.000000" stroke="none" 
	d="
M84.158218,102.710258 
	C84.891907,106.260155 83.447060,106.978867 80.389847,106.745773 
	C75.942963,106.406723 71.454300,106.648621 66.986443,106.529945 
	C65.800896,106.498459 64.115097,106.425034 63.587410,105.697479 
	C63.036171,104.937462 63.170456,102.974640 63.810970,102.263512 
	C64.396988,101.612892 66.058701,101.847282 67.247467,101.838562 
	C71.512436,101.807266 75.778603,101.796577 80.042702,101.870537 
	C81.354477,101.893288 82.661125,102.211624 84.158218,102.710258 
z"/>
<path fill="#F1EAE6" opacity="1.000000" stroke="none" 
	d="
M131.325806,101.483276 
	C132.826508,102.465813 133.968277,103.639572 135.110046,104.813324 
	C133.515503,105.246277 131.933441,105.985672 130.323929,106.051216 
	C126.442398,106.209290 122.546806,106.099869 118.659454,105.999184 
	C117.075356,105.958153 115.459641,105.788559 113.958923,105.340462 
	C113.735016,105.273605 113.820786,102.538216 114.183647,102.428589 
	C115.536369,102.019875 117.064445,102.197014 118.526306,102.143021 
	C122.673279,101.989830 126.820045,101.831062 131.325806,101.483276 
z"/>
<path fill="#EEE5DF" opacity="1.000000" stroke="none" 
	d="
M80.790283,114.941498 
	C78.228371,115.606491 76.111717,116.439644 73.919632,116.765892 
	C72.808350,116.931282 71.249458,116.499657 70.476929,115.742256 
	C69.894165,115.170906 69.783585,113.312202 70.285217,112.642433 
	C70.926971,111.785614 72.830086,110.804565 73.438019,111.160568 
	C78.289825,114.001778 82.628212,111.950943 87.092857,110.250290 
	C87.899719,109.942940 88.924049,110.206520 89.847984,110.206520 
	C90.004059,110.650291 90.160133,111.094055 90.316216,111.537827 
	C87.278923,112.658554 84.241638,113.779289 80.790283,114.941498 
z"/>
<path fill="#EFE8E3" opacity="1.000000" stroke="none" 
	d="
M96.545807,111.830025 
	C96.921364,112.082642 97.040100,112.572998 97.337921,113.803421 
	C93.911560,118.000534 90.372475,121.533112 86.623291,124.826515 
	C86.108994,125.278282 84.228104,124.882164 83.564156,124.257553 
	C82.893990,123.627098 82.522621,122.084274 82.810913,121.198463 
	C83.094383,120.327484 84.487930,119.081398 85.192863,119.199776 
	C91.158531,120.201653 93.742081,116.215790 96.545807,111.830025 
z"/>
<path fill="#F7EFEB" opacity="1.000000" stroke="none" 
	d="
M109.291641,109.786850 
	C113.711845,112.823746 118.284073,114.087669 123.511520,111.646561 
	C124.537567,111.167412 126.364815,111.636215 127.422791,112.302528 
	C127.989975,112.659744 128.179047,114.718231 127.689125,115.379982 
	C127.047653,116.246407 125.381989,117.149399 124.476967,116.895538 
	C119.027229,115.366943 113.669098,113.511810 108.245850,111.170837 
	C108.571487,110.312744 108.931564,110.049797 109.291641,109.786850 
z"/>
<path fill="#ECE4E0" opacity="1.000000" stroke="none" 
	d="
M104.711647,116.723488 
	C107.298508,117.505066 109.938202,118.151459 112.447289,119.132042 
	C113.512154,119.548195 114.715134,120.511650 115.088242,121.512375 
	C115.387177,122.314171 114.813232,124.085732 114.111824,124.458702 
	C113.161346,124.964111 111.371223,125.026062 110.551025,124.433815 
	C107.790817,122.440720 105.300690,120.073578 103.130280,117.419914 
	C103.939430,116.901360 104.325539,116.812424 104.711647,116.723488 
z"/>
<path fill="#EFE8E4" opacity="1.000000" stroke="none" 
	d="
M102.014969,125.797668 
	C100.846390,128.973877 98.896484,129.649826 96.768265,127.528130 
	C96.123962,126.885788 96.206512,124.338409 96.887863,123.758659 
	C99.098404,121.877739 101.086128,122.445358 102.014969,125.797668 
z"/>
<path fill="#E0D3CD" opacity="1.000000" stroke="none" 
	d="
M109.107536,109.514153 
	C108.931564,110.049797 108.571487,110.312744 108.047104,110.869232 
	C105.487694,109.368599 103.092598,107.574432 100.346016,105.889229 
	C100.130127,105.301659 100.265724,104.605125 101.055283,103.949982 
	C102.229584,103.969093 102.749916,103.946823 103.270248,103.924545 
	C105.154640,105.696846 107.039032,107.469147 109.107536,109.514153 
z"/>
<path fill="#EFE8E3" opacity="1.000000" stroke="none" 
	d="
M104.559448,116.414726 
	C104.325539,116.812424 103.939430,116.901360 102.968910,117.103394 
	C101.408943,115.843544 100.433388,114.470589 99.216766,112.873398 
	C99.368599,112.081558 99.761513,111.513947 100.500549,110.835510 
	C102.033531,112.518448 103.220383,114.312202 104.559448,116.414726 
z"/>
<path fill="#E6DDDA" opacity="1.000000" stroke="none" 
	d="
M111.425705,95.862488 
	C112.817589,95.620308 114.629875,95.468353 116.714111,95.543045 
	C115.272736,95.830704 113.559425,95.891716 111.425705,95.862488 
z"/>
<path fill="#E4DBD7" opacity="1.000000" stroke="none" 
	d="
M78.410080,95.864792 
	C79.494698,95.624466 80.988358,95.476776 82.736687,95.550797 
	C81.600616,95.834160 80.209869,95.895798 78.410080,95.864792 
z"/>
<path fill="#EFE8E3" opacity="1.000000" stroke="none" 
	d="
M103.170547,103.609482 
	C102.749916,103.946823 102.229584,103.969093 101.320602,103.936005 
	C100.974846,103.401276 101.017731,102.921921 101.095367,102.081940 
	C101.777031,102.245682 102.423935,102.770058 103.170547,103.609482 
z"/>
<path fill="#54B159" opacity="1.000000" stroke="none" 
	d="
M100.934006,93.308853 
	C99.256172,93.304932 97.578331,93.301025 95.028656,93.207245 
	C90.084084,93.208328 86.011360,93.299286 81.938629,93.390244 
	C80.907089,93.367210 79.875549,93.344177 78.083984,93.239349 
	C76.532135,93.155052 75.740311,93.152550 74.948486,93.150047 
	C74.948486,93.150047 74.652496,92.950478 74.503601,92.551689 
	C74.105164,87.565033 76.491623,85.365662 80.784256,84.226913 
	C86.076561,82.822998 87.195992,80.615738 86.229462,75.225510 
	C81.153419,75.085548 81.063675,75.130913 74.634903,80.692299 
	C74.541183,77.149780 74.344444,74.052689 74.215805,70.640045 
	C74.241356,69.898422 74.198807,69.472359 74.319138,68.768387 
	C74.572617,67.632095 74.663208,66.773697 74.753807,65.915306 
	C75.259865,65.820221 75.765930,65.725136 76.877975,65.733574 
	C77.656189,65.832291 77.828415,65.827477 78.000641,65.822655 
	C88.900139,70.242859 96.985191,77.052628 97.415108,91.291702 
	C99.023598,89.106285 99.565002,88.370689 100.325539,87.190666 
	C100.675522,86.421387 100.567139,86.183456 100.219528,86.032433 
	C102.278030,82.129295 104.336533,78.226166 106.700134,74.572990 
	C107.040344,77.302818 106.556938,80.391800 110.897125,78.333176 
	C111.856369,84.524933 117.752792,83.560760 121.125412,86.300659 
	C121.405678,86.726883 121.636925,86.890396 122.196426,87.225891 
	C122.675453,88.646011 122.877441,89.821747 122.660866,91.046661 
	C117.822533,91.747551 113.402763,92.399269 108.982994,93.050980 
	C108.551933,93.109093 108.120880,93.167198 107.189911,92.881378 
	C105.126877,92.643677 103.563751,92.749901 101.726898,92.952652 
	C101.280113,93.135750 101.107056,93.222305 100.934006,93.308853 
M101.753746,88.826126 
	C101.588028,88.881073 101.422318,88.936012 101.256599,88.990952 
	C101.423309,89.044525 101.590012,89.098099 101.753746,88.826126 
z"/>
<path fill="#52C1D3" opacity="1.000000" stroke="none" 
	d="
M99.700523,62.967834 
	C96.884079,63.716473 94.508301,64.542633 92.085037,65.191460 
	C90.847534,65.522804 89.524887,65.536179 87.329094,65.804802 
	C90.126167,59.943966 94.564468,59.058426 98.911446,59.155479 
	C103.008278,59.246944 107.490334,59.807354 109.723991,66.351616 
	C105.803360,64.971718 102.962448,63.971836 99.700523,62.967834 
z"/>
<path fill="#35BFD3" opacity="1.000000" stroke="none" 
	d="
M98.862015,66.978630 
	C102.629112,67.073555 104.435265,69.080444 103.405365,72.043648 
	C102.831734,73.694069 99.894569,75.944611 98.659645,75.605392 
	C96.874100,75.114922 94.983719,72.734497 94.369911,70.774597 
	C93.414467,67.723763 95.798599,66.892456 98.862015,66.978630 
z"/>
<path fill="#54B159" opacity="1.000000" stroke="none" 
	d="
M123.980606,78.528175 
	C123.977913,78.742210 123.978043,78.956238 123.719360,79.524658 
	C122.735146,79.762352 121.910065,79.830826 121.307495,79.497307 
	C118.504349,77.945724 115.762779,76.282906 113.277184,74.469574 
	C114.569672,73.966377 115.584145,73.653496 116.598618,73.340607 
	C116.631859,73.011070 116.665100,72.681541 116.698334,72.352005 
	C114.913551,71.800064 113.128769,71.248131 111.343987,70.696198 
	C112.671890,69.825035 113.999794,68.953873 115.836288,68.365326 
	C118.587845,68.764977 120.830795,68.882027 123.161545,69.420898 
	C123.180466,71.559349 123.111595,73.275986 122.868614,75.083008 
	C122.815933,75.452293 122.937370,75.731194 123.155807,76.341339 
	C123.495399,77.291107 123.738007,77.909637 123.980606,78.528175 
z"/>
<path fill="#35BAC8" opacity="1.000000" stroke="none" 
	d="
M100.981140,54.916824 
	C94.208572,53.953594 88.948593,57.584064 83.262871,61.845005 
	C84.671440,55.127163 92.343925,50.938320 101.502571,51.454651 
	C101.596252,52.868225 101.288696,53.892525 100.981140,54.916824 
z"/>
<path fill="#4BC1D3" opacity="1.000000" stroke="none" 
	d="
M101.344193,54.984131 
	C101.288696,53.892525 101.596252,52.868225 101.933273,51.523819 
	C105.065010,52.604626 108.295364,53.785992 111.219528,55.492134 
	C112.866524,56.453098 114.008682,58.279327 115.378258,59.715771 
	C115.069473,60.159958 114.760696,60.604145 114.451912,61.048332 
	C110.203690,59.049366 105.955475,57.050400 101.344193,54.984131 
z"/>
<path fill="#53B159" opacity="1.000000" stroke="none" 
	d="
M111.043228,70.744308 
	C113.128769,71.248131 114.913551,71.800064 116.698334,72.352005 
	C116.665100,72.681541 116.631859,73.011070 116.598618,73.340607 
	C115.584145,73.653496 114.569672,73.966377 112.928215,74.598572 
	C111.780304,75.945587 111.259361,76.973282 110.738419,78.000977 
	C106.556938,80.391800 107.040344,77.302818 107.008591,74.435005 
	C108.255463,72.962189 109.498962,71.877312 111.043228,70.744308 
z"/>
<path fill="#EFFBEF" opacity="1.000000" stroke="none" 
	d="
M124.463310,78.666389 
	C123.738007,77.909637 123.495399,77.291107 123.212036,76.086006 
	C123.128433,75.330505 123.085587,75.161560 123.042732,74.992622 
	C123.111595,73.275986 123.180466,71.559349 123.234642,69.049202 
	C123.215004,67.498665 123.210052,66.741646 123.205109,65.984619 
	C123.903633,65.989525 124.602165,65.994431 125.649963,65.999969 
	C125.648170,70.268608 125.297089,74.536606 124.463310,78.666389 
z"/>
<path fill="#53B159" opacity="1.000000" stroke="none" 
	d="
M122.987411,65.872208 
	C123.210052,66.741646 123.215004,67.498665 123.146851,68.627380 
	C120.830795,68.882027 118.587845,68.764977 116.175919,68.332901 
	C117.134995,67.388794 118.263046,66.759727 119.954460,65.997040 
	C120.809044,65.669189 121.100273,65.474968 121.391495,65.280754 
	C121.850899,65.440437 122.310310,65.600113 122.987411,65.872208 
z"/>
<path fill="#E0F7E1" opacity="1.000000" stroke="none" 
	d="
M74.373093,65.938339 
	C74.663208,66.773697 74.572617,67.632095 73.945663,68.750465 
	C72.910973,69.001068 72.412628,68.991692 71.914291,68.982315 
	C71.840118,68.273697 71.765945,67.565071 71.699234,66.499939 
	C72.468597,66.082748 73.230484,66.022064 74.373093,65.938339 
z"/>
<path fill="#E0F7E1" opacity="1.000000" stroke="none" 
	d="
M77.929962,65.677856 
	C77.828415,65.827477 77.656189,65.832291 77.264145,65.701157 
	C77.312111,65.285042 77.583763,65.274323 77.929962,65.677856 
z"/>
<path fill="#CEEED0" opacity="1.000000" stroke="none" 
	d="
M121.117828,65.244522 
	C121.100273,65.474968 120.809044,65.669189 120.249786,65.850204 
	C120.269218,65.627434 120.556686,65.417854 121.117828,65.244522 
z"/>
<path fill="#53B159" opacity="1.000000" stroke="none" 
	d="
M100.162491,86.268265 
	C100.567139,86.183456 100.675522,86.421387 100.426895,86.845375 
	C100.309128,86.944519 100.105446,86.504089 100.162491,86.268265 
z"/>
<path fill="#EFFBEF" opacity="1.000000" stroke="none" 
	d="
M110.897125,78.333176 
	C111.259361,76.973282 111.780304,75.945587 112.650208,74.788895 
	C115.762779,76.282906 118.504349,77.945724 121.307495,79.497307 
	C121.910065,79.830826 122.735146,79.762352 123.723404,79.685135 
	C126.493805,80.175491 128.235657,79.275612 130.234344,77.561249 
	C132.146103,75.921463 134.962585,75.336449 137.599503,74.193275 
	C138.771271,80.601280 136.871414,83.951393 131.177780,86.056183 
	C128.045105,87.214256 125.619812,88.697021 125.235939,92.643990 
	C124.831306,92.797401 124.364006,92.585480 123.601456,91.937210 
	C123.230614,91.333061 123.155022,91.165268 123.079430,90.997482 
	C122.877441,89.821747 122.675453,88.646011 122.144348,86.999229 
	C121.632805,86.235916 121.369453,86.096642 121.025169,86.110367 
	C117.752792,83.560760 111.856369,84.524933 110.897125,78.333176 
M123.510246,82.383156 
	C123.510246,82.383156 123.581856,82.503990 123.510246,82.383156 
z"/>
<path fill="#EDFAEE" opacity="1.000000" stroke="none" 
	d="
M74.531883,81.137733 
	C81.063675,75.130913 81.153419,75.085548 86.229462,75.225510 
	C87.195992,80.615738 86.076561,82.822998 80.784256,84.226913 
	C76.491623,85.365662 74.105164,87.565033 74.328110,92.519089 
	C73.714325,92.901131 73.127136,92.916977 72.100494,92.896469 
	C71.942001,89.232628 70.346863,87.294067 66.797218,86.094994 
	C61.188885,84.200478 59.297733,80.924911 59.697769,75.195381 
	C65.393730,73.794868 68.156609,78.110725 72.023041,81.132881 
	C73.214821,81.037071 73.873352,81.087402 74.531883,81.137733 
z"/>
<path fill="#E0F7E1" opacity="1.000000" stroke="none" 
	d="
M74.634903,80.692299 
	C73.873352,81.087402 73.214821,81.037071 72.219345,80.980530 
	C71.837669,78.946846 71.792931,76.919373 72.012894,74.366821 
	C72.152954,73.548851 72.028313,73.255959 71.903679,72.963058 
	C71.848595,72.529823 71.793510,72.096581 72.191765,71.337837 
	C73.145966,70.993423 73.646835,70.974518 74.147705,70.955605 
	C74.344444,74.052689 74.541183,77.149780 74.634903,80.692299 
z"/>
<path fill="#EDFAEE" opacity="1.000000" stroke="none" 
	d="
M74.215805,70.640045 
	C73.646835,70.974518 73.145966,70.993423 72.268944,71.017029 
	C71.850571,70.566345 71.808350,70.110947 71.840210,69.318939 
	C72.412628,68.991692 72.910973,69.001068 73.782791,69.028366 
	C74.198807,69.472359 74.241356,69.898422 74.215805,70.640045 
z"/>
<path fill="#EDFAEE" opacity="1.000000" stroke="none" 
	d="
M71.853928,73.231461 
	C72.028313,73.255959 72.152954,73.548851 72.094711,73.938423 
	C71.875946,73.856682 71.840057,73.678276 71.853928,73.231461 
z"/>
<path fill="#FEF0D0" opacity="1.000000" stroke="none" 
	d="
M113.885223,44.400810 
	C114.114120,44.327477 114.409576,44.503578 114.741417,44.948318 
	C114.502464,45.028049 114.227119,44.839142 113.885223,44.400810 
z"/>
<path fill="#53B159" opacity="1.000000" stroke="none" 
	d="
M122.660866,91.046661 
	C123.155022,91.165268 123.230614,91.333061 123.419891,91.752457 
	C123.453133,92.178894 123.372673,92.353722 122.703941,92.775192 
	C119.721901,93.143394 117.328140,93.264954 114.934380,93.386505 
	C113.229851,93.334030 111.525330,93.281563 109.401901,93.140030 
	C113.402763,92.399269 117.822533,91.747551 122.660866,91.046661 
z"/>
<path fill="#B6E7B7" opacity="1.000000" stroke="none" 
	d="
M82.288071,93.597000 
	C86.011360,93.299286 90.084084,93.208328 94.609390,93.247414 
	C90.920486,93.519554 86.778999,93.661659 82.288071,93.597000 
z"/>
<path fill="#B5E7B7" opacity="1.000000" stroke="none" 
	d="
M115.260643,93.587784 
	C117.328140,93.264954 119.721901,93.143394 122.565704,93.028618 
	C120.539467,93.286621 118.063187,93.537842 115.260643,93.587784 
z"/>
<path fill="#53B159" opacity="1.000000" stroke="none" 
	d="
M102.000618,92.856125 
	C103.563751,92.749901 105.126877,92.643677 106.870163,92.804443 
	C107.050308,93.071434 107.167572,93.223793 106.773384,93.192940 
	C105.892075,93.240364 105.404953,93.318642 104.917831,93.396927 
	C104.507126,93.370903 104.096413,93.344879 103.121559,93.197632 
	C102.371811,93.002983 102.186218,92.929558 102.000618,92.856125 
z"/>
<path fill="#B6E7B7" opacity="1.000000" stroke="none" 
	d="
M75.124649,93.393112 
	C75.740311,93.152550 76.532135,93.155052 77.699646,93.286743 
	C77.150490,93.489349 76.225647,93.562767 75.124649,93.393112 
z"/>
<path fill="#B6E7B7" opacity="1.000000" stroke="none" 
	d="
M105.099686,93.569138 
	C105.404953,93.318642 105.892075,93.240364 106.734924,93.281052 
	C106.487617,93.513794 105.884583,93.627571 105.099686,93.569138 
z"/>
<path fill="#B6E7B7" opacity="1.000000" stroke="none" 
	d="
M101.726898,92.952652 
	C102.186218,92.929558 102.371811,93.002983 102.814125,93.230896 
	C102.469788,93.483971 101.868736,93.582565 101.100845,93.495003 
	C101.107056,93.222305 101.280113,93.135750 101.726898,92.952652 
z"/>
<path fill="#7E6762" opacity="1.000000" stroke="none" 
	d="
M46.947426,151.333710 
	C47.005726,151.897873 46.898670,152.643951 46.494930,152.877808 
	C46.090618,153.112000 45.389988,152.834625 43.939812,152.699570 
	C45.353310,151.965500 46.002659,151.628281 46.947426,151.333710 
z"/>
<path fill="#53B159" opacity="1.000000" stroke="none" 
	d="
M101.755234,88.988899 
	C101.590012,89.098099 101.423309,89.044525 101.256599,88.990952 
	C101.422318,88.936012 101.588028,88.881073 101.755234,88.988899 
z"/>
<path fill="#53B159" opacity="1.000000" stroke="none" 
	d="
M121.125412,86.300659 
	C121.369453,86.096642 121.632805,86.235916 121.867302,86.754837 
	C121.636925,86.890396 121.405678,86.726883 121.125412,86.300659 
z"/>
<path fill="#53B159" opacity="1.000000" stroke="none" 
	d="
M122.868614,75.083008 
	C123.085587,75.161560 123.128433,75.330505 123.115044,75.754776 
	C122.937370,75.731194 122.815933,75.452293 122.868614,75.083008 
z"/>
<path fill="#CEEED0" opacity="1.000000" stroke="none" 
	d="
M123.546051,82.443573 
	C123.581856,82.503990 123.510246,82.383156 123.546051,82.443573 
z"/>
</svg>